<?xml version="1.0" encoding="utf-8"?>
<!-- Generator: Adobe Illustrator 28.0.0, SVG Export Plug-In . SVG Version: 6.00 Build 0)  -->
<svg version="1.1" id="Слой_1" xmlns="http://www.w3.org/2000/svg" xmlns:xlink="http://www.w3.org/1999/xlink" x="0px" y="0px"
	 viewBox="0 0 942.6867065 1000" enable-background="new 0 0 942.6867065 1000" xml:space="preserve">
<g>
	<defs>
		<path id="SVGID_1_" d="M471.8218079,0L471.8218079,0C731.873291,0,942.6867065,210.8141785,942.6867065,470.8666687v58.2666321
			C942.6867065,789.1858521,731.873291,1000,471.8218079,1000l0,0C211.77034,1000,0.9566956,789.1858521,0.9566956,529.1333008
			v-58.2666321C0.9566956,210.8141785,211.77034,0,471.8218079,0z"/>
	</defs>
	<clipPath id="SVGID_00000171704589558179315200000003718567365349178801_">
		<use xlink:href="#SVGID_1_"  overflow="visible"/>
	</clipPath>
	<g clip-path="url(#SVGID_00000171704589558179315200000003718567365349178801_)">
		<path fill="#E6E6E6" d="M471.8218079,0L471.8218079,0C731.873291,0,942.6867065,210.8141785,942.6867065,470.8666687v58.2666321
			C942.6867065,789.1858521,731.873291,1000,471.8218079,1000l0,0C211.77034,1000,0.9566956,789.1858521,0.9566956,529.1333008
			v-58.2666321C0.9566956,210.8141785,211.77034,0,471.8218079,0z"/>
		<g>
			<defs>
				
					<rect id="SVGID_00000036942284611720401610000003982270619234424735_" x="-32" y="64.9983292" width="824.0133057" height="875"/>
			</defs>
			<clipPath id="SVGID_00000101805235826829423650000000756648728446901906_">
				<use xlink:href="#SVGID_00000036942284611720401610000003982270619234424735_"  overflow="visible"/>
			</clipPath>
			<g clip-path="url(#SVGID_00000101805235826829423650000000756648728446901906_)">
				<path fill="#FF7751" d="M-32,222.4983368l412.0000305-157.5l412.0000305,157.5V782.5L380.0000305,939.9966431L-32,782.5
					V222.4983368z"/>
				<path fill="#E13100" d="M-32,222.5016632L380.0000305,380v560L-32,782.5V222.5016632z"/>
				<path fill="#FC4714" d="M792.000061,222.5016632L380.0000305,380v560L792.000061,782.5V222.5016632z"/>
				<path fill="#FFFFFF" d="M746.666687,682.1599731c-88.4333496,90.9900513-230.3331909,143.0366821-321.333313,124.2200317v-49.25
					c89.166748,19.3166504,232.2333984-27.8499756,321.333313-124.1866455V682.1599731z M564.1000977,538.4432983
					l-29.1999512,11.3300171v132.0300293l-73.0667419,28.2233276v-132l-29.2332764,11.2299805l65.7666321-190.4933167
					L564.1000977,538.4432983z M739.4002075,470.7033386l-29.2335815,11.3266602v132.0000305l-73.0331421,28.2232666V510.2200012
					l-29.1999512,11.2966614l65.7333374-190.4946594L739.4002075,470.7033386z"/>
			</g>
		</g>
	</g>
</g>
</svg>