<svg width="233.764114" height="22.104111" viewBox="0 0 233.764 22.1041" fill="none" xmlns="http://www.w3.org/2000/svg" xmlns:xlink="http://www.w3.org/1999/xlink">
    <path id="3D" d="M9.53 21.23C10.18 20.75 10.73 20.1 11.21 19.28Q11.95 18 12.12 16.79Q12.3 15.58 11.93 14.64C11.69 14 11.27 13.52 10.67 13.18C10.06 12.81 9.42 12.73 8.77 12.91Q7.79 13.2 6.92 14.38L6.84 14.34C7.14 13.68 7.22 13.04 7.09 12.43Q7.01 12.01 6.79 11.69Q6.52 11.29 6.04 11.02C5.48 10.69 4.88 10.56 4.24 10.65Q3.28 10.76 2.39 11.43Q1.5 12.1 0.83 13.26Q0.15 14.44 0.02 15.59Q-0.09 16.67 0.26 17.56Q0.29 17.62 0.31 17.67Q0.46 18.01 0.67 18.29Q1.06 18.8 1.65 19.14L3.21 16.43Q3.03 16.32 2.9 16.16Q2.82 16.06 2.77 15.94C2.68 15.73 2.65 15.5 2.68 15.25C2.7 14.99 2.79 14.74 2.94 14.48Q3.15 14.12 3.43 13.93Q3.68 13.75 3.94 13.71Q3.99 13.71 4.04 13.7C4.25 13.69 4.45 13.74 4.64 13.86C4.85 13.97 5 14.14 5.08 14.35C5.17 14.56 5.2 14.8 5.16 15.07C5.13 15.33 5.03 15.61 4.87 15.89L4.25 16.95L6.15 18.05L6.76 16.98Q7.03 16.53 7.37 16.25C7.59 16.07 7.82 15.96 8.05 15.92C8.29 15.88 8.5 15.92 8.71 16.04C8.92 16.16 9.07 16.32 9.17 16.52C9.26 16.73 9.3 16.96 9.27 17.21C9.25 17.46 9.16 17.72 9.01 17.98C8.85 18.25 8.67 18.47 8.46 18.63C8.25 18.79 8.04 18.89 7.82 18.93C7.59 18.95 7.38 18.92 7.19 18.81L5.54 21.66Q6.1 21.98 6.7 22.07Q7.11 22.13 7.53 22.08Q7.54 22.07 7.55 22.07Q8.58 21.94 9.53 21.23ZM14.3 13.61L16.62 9.59C17.23 8.53 17.56 7.49 17.61 6.48Q17.64 5.66 17.44 4.9Q17.26 4.27 16.91 3.67C16.4 2.81 15.62 2.08 14.56 1.47C13.51 0.86 12.48 0.55 11.48 0.55C10.48 0.53 9.55 0.8 8.69 1.36C7.84 1.91 7.1 2.72 6.48 3.79L4.18 7.77L14.3 13.61ZM14.23 8.35L13.6 9.43L8.15 6.28L8.73 5.28Q9.2 4.46 9.76 4.04C10.14 3.76 10.59 3.63 11.09 3.67C11.6 3.7 12.21 3.92 12.91 4.32C13.62 4.73 14.11 5.15 14.4 5.57C14.68 5.99 14.8 6.43 14.75 6.89C14.7 7.34 14.53 7.83 14.23 8.35Z" fill="#09090B" fill-opacity="1.000000" fill-rule="evenodd"/>
    <path id="div" d="M19.7641 21.4107L19.7641 21.7072L35.5029 21.7072L35.5029 17.0228L25.7089 17.0228L25.7089 13.3422L34.7331 13.3422L34.7331 8.65779L27.2931 8.65779L19.7641 21.4107ZM29.466 4.97719L35.5457 4.97719L35.5457 0.292776L32.2316 0.292776L29.466 4.97719ZM94.8682 8.32319L88.8378 8.32319C88.7951 7.83524 88.681 7.39259 88.4957 6.99525C88.3175 6.59791 88.068 6.25634 87.7473 5.97053C87.4336 5.67776 87.0523 5.45469 86.6032 5.30133C86.1541 5.141 85.6445 5.06084 85.0742 5.06084C84.0763 5.06084 83.2316 5.29784 82.5402 5.77187C81.8559 6.24588 81.3356 6.92554 80.9791 7.81084C80.6299 8.69613 80.4552 9.75919 80.4552 11C80.4552 12.3105 80.6334 13.4084 80.9898 14.2937C81.3534 15.1721 81.8773 15.8343 82.5616 16.2804C83.2459 16.7196 84.0692 16.9392 85.0314 16.9392C85.5803 16.9392 86.0722 16.8729 86.507 16.7405C86.9418 16.6011 87.3196 16.4024 87.6403 16.1445C87.9611 15.8866 88.2213 15.5764 88.4209 15.2139C88.6276 14.8444 88.7666 14.4297 88.8378 13.9696L94.8682 14.0114C94.7969 14.9176 94.5368 15.8413 94.0877 16.7823C93.6386 17.7164 93.0006 18.5808 92.1738 19.3755C91.354 20.1632 90.3383 20.7975 89.1265 21.2785C87.9147 21.7595 86.507 22 84.9032 22Q82.0634 22 79.7737 20.8777Q79.6323 20.8084 79.4929 20.7348Q78.6393 20.2818 77.913 19.676Q76.6109 18.5898 75.7186 17.0124C74.7991 15.3742 74.3393 13.3701 74.3393 11C74.3393 8.61597 74.8098 6.60836 75.7507 4.97719Q76.6666 3.38261 77.9967 2.29439L77.9971 2.29412L77.9983 2.29313L77.9984 2.29303Q78.7173 1.70519 79.5571 1.26521Q79.8946 1.08692 80.2431 0.933754L80.2434 0.933638Q82.3681 0 84.9032 0C86.286 0 87.5584 0.184727 88.7202 0.554182C89.8821 0.923637 90.9014 1.46388 91.7782 2.1749C92.6549 2.87896 93.3606 3.74683 93.8952 4.77852C94.4298 5.8102 94.7541 6.99176 94.8682 8.32319ZM159.561 11Q159.561 14.576 158.139 17.0333C157.191 18.6644 155.911 19.9018 154.3 20.7452C152.689 21.5817 150.893 22 148.912 22C146.916 22 145.112 21.5783 143.501 20.7348Q142.606 20.2598 141.846 19.6224L141.843 19.6201Q140.565 18.5464 139.674 17.0124C138.733 15.3742 138.262 13.3701 138.262 11C138.262 8.61597 138.733 6.60836 139.674 4.97719Q140.59 3.39315 141.916 2.30883Q142.646 1.71109 143.501 1.26521C145.112 0.421736 146.916 0 148.912 0C150.893 0 152.689 0.421736 154.3 1.26521C155.911 2.10171 157.191 3.33904 158.139 4.97719Q159.561 7.42395 159.561 11ZM213.275 8.32319L207.245 8.32319C207.202 7.83524 207.088 7.39259 206.903 6.99525C206.725 6.59791 206.475 6.25634 206.154 5.97053C205.841 5.67776 205.459 5.45469 205.01 5.30133Q204.337 5.06084 203.481 5.06084C202.483 5.06084 201.639 5.29784 200.947 5.77187C200.263 6.24588 199.743 6.92554 199.386 7.81084C199.037 8.69613 198.862 9.75919 198.862 11C198.862 12.3105 199.041 13.4084 199.397 14.2937C199.761 15.1721 200.284 15.8343 200.969 16.2804C201.653 16.7196 202.476 16.9392 203.439 16.9392C203.987 16.9392 204.479 16.8729 204.914 16.7405C205.349 16.6011 205.727 16.4024 206.047 16.1445C206.368 15.8866 206.628 15.5764 206.828 15.2139C207.035 14.8444 207.174 14.4297 207.245 13.9696L213.275 14.0114C213.204 14.9176 212.944 15.8413 212.495 16.7823C212.046 17.7164 211.408 18.5808 210.581 19.3755C209.761 20.1632 208.745 20.7975 207.534 21.2785C206.322 21.7595 204.914 22 203.31 22C201.3 22 199.497 21.5783 197.9 20.7348C196.311 19.8913 195.052 18.6505 194.126 17.0124C193.206 15.3742 192.746 13.3701 192.746 11C192.746 8.61597 193.217 6.60836 194.158 4.97719C195.099 3.33904 196.368 2.10171 197.964 1.26521C199.561 0.421736 201.343 0 203.31 0C204.693 0 205.965 0.184727 207.127 0.554182C208.289 0.923637 209.309 1.46388 210.185 2.1749C211.062 2.87896 211.768 3.74683 212.302 4.77852C212.837 5.8102 213.161 6.99176 213.275 8.32319ZM227.777 6.98479C227.719 6.2877 227.452 5.74398 226.975 5.35361Q226.269 4.76806 224.826 4.76806C224.212 4.76806 223.71 4.84126 223.318 4.98764C222.933 5.12706 222.648 5.31876 222.463 5.56274C222.277 5.80672 222.181 6.08555 222.174 6.39924C222.172 6.42957 222.171 6.45957 222.171 6.48923C222.171 6.71175 222.219 6.91528 222.313 7.09981C222.427 7.30196 222.605 7.48669 222.847 7.65399C223.09 7.81432 223.4 7.96071 223.778 8.09315C224.155 8.2256 224.605 8.34411 225.125 8.44867L226.921 8.8251C228.133 9.07605 229.17 9.40716 230.033 9.81844C230.895 10.2297 231.601 10.7142 232.15 11.2719C232.698 11.8226 233.101 12.443 233.358 13.1331C233.622 13.8232 233.757 14.576 233.764 15.3916C233.757 16.7997 233.397 17.9918 232.684 18.9677C231.971 19.9436 230.952 20.686 229.626 21.1949C228.308 21.7037 226.722 21.9582 224.868 21.9582C222.965 21.9582 221.304 21.6828 219.886 21.1321C218.474 20.5814 217.377 19.7345 216.593 18.5913Q215.427 16.866 215.416 14.1787L221.062 14.1787C221.098 14.834 221.265 15.3847 221.564 15.8308C221.864 16.2769 222.284 16.615 222.826 16.8451C223.375 17.0751 224.027 17.1901 224.783 17.1901C225.417 17.1901 225.948 17.1134 226.376 16.9601C226.804 16.8067 227.128 16.5941 227.349 16.3222C227.57 16.0504 227.684 15.7402 227.691 15.3916C227.684 15.064 227.573 14.7782 227.36 14.5342C227.153 14.2833 226.811 14.0602 226.333 13.865C225.856 13.6629 225.21 13.4747 224.398 13.3004L222.217 12.8403C220.278 12.429 218.749 11.7424 217.63 10.7804C216.525 9.81763 215.972 8.50727 215.972 6.84934L215.972 6.81749C215.972 6.8047 215.972 6.79192 215.972 6.77916C215.972 5.43582 216.343 4.26007 217.084 3.2519C217.84 2.22719 218.884 1.42902 220.217 0.857414C221.557 0.285805 223.093 0 224.826 0C226.593 0 228.122 0.289289 229.412 0.86787C230.703 1.44645 231.697 2.26204 232.396 3.31464C233.101 4.36027 233.458 5.58365 233.465 6.98479L227.777 6.98479ZM38.494 21.7072L38.494 0.292776L44.4389 0.292776L44.4389 17.0228L53.2919 17.0228L53.2919 21.7072L38.494 21.7072ZM55.695 21.7072L55.695 0.292776L71.4765 0.292776L71.4765 4.97719L61.6398 4.97719L61.6398 8.65779L70.6639 8.65779L70.6639 13.3422L61.6398 13.3422L61.6398 17.0228L71.4338 17.0228L71.4338 21.7072L55.695 21.7072ZM96.9665 4.97719L96.9665 0.292776L115.998 0.292776L115.998 4.97719L109.412 4.97719L109.412 21.7072L103.553 21.7072L103.553 4.97719L96.9665 4.97719ZM118.236 21.7072L118.236 0.292776L127.688 0.292776C129.313 0.292776 130.735 0.582066 131.954 1.16065C133.173 1.73923 134.121 2.57224 134.798 3.6597C135.475 4.74715 135.814 6.0507 135.814 7.57034C135.814 9.10393 135.464 10.397 134.766 11.4496C134.12 12.4321 133.23 13.1899 132.094 13.723L136.541 21.7072L130.083 21.7072L126.238 14.6388L124.181 14.6388L124.181 21.7072L118.236 21.7072ZM181.258 0.292776L181.258 21.7072L176.297 21.7072L168.384 10.4563L168.256 10.4563L168.256 21.7072L162.311 21.7072L162.311 0.292776L167.358 0.292776L175.142 11.5019L175.313 11.5019L175.313 0.292776L181.258 0.292776ZM190.015 0.292776L190.015 21.7072L184.07 21.7072L184.07 0.292776L190.015 0.292776ZM124.181 10.1217L126.276 10.1217Q127.324 10.1217 128.062 9.87072C128.561 9.69645 128.942 9.4211 129.206 9.04468Q129.612 8.48004 129.612 7.57034Q129.612 6.65019 129.206 6.0751C128.942 5.68473 128.561 5.39892 128.062 5.21768Q127.324 4.93536 126.276 4.93536L124.181 4.93536L124.181 10.1217ZM153.445 11C153.445 9.71737 153.27 8.63688 152.921 7.75856Q152.461 6.56848 151.598 5.89906L151.594 5.89619Q151.496 5.82021 151.392 5.75095C150.722 5.29087 149.895 5.06084 148.912 5.06084C147.928 5.06084 147.097 5.29087 146.42 5.75095C145.75 6.20406 145.241 6.87326 144.891 7.75856C144.549 8.63688 144.378 9.71737 144.378 11C144.378 12.2826 144.549 13.3666 144.891 14.2519C145.241 15.1302 145.75 15.7994 146.42 16.2595C147.097 16.7126 147.928 16.9392 148.912 16.9392C149.895 16.9392 150.722 16.7126 151.392 16.2595Q151.514 16.1767 151.628 16.0849Q152.469 15.4114 152.921 14.2519C153.27 13.3666 153.445 12.2826 153.445 11Z" clip-rule="evenodd" fill="#09090B" fill-opacity="1.000000" fill-rule="evenodd"/>
</svg>
