<svg width="24" height="24" viewBox="0 0 24 24" fill="none" xmlns="http://www.w3.org/2000/svg">
<path d="M13.1727 9.5C13.7227 9.5 14.1727 9.05 14.1727 8.5V6.5H16.1727C16.7227 6.5 17.1727 6.05 17.1727 5.5C17.1727 4.95 16.7227 4.5 16.1727 4.5H14.1727V2.5C14.1727 1.95 13.7227 1.5 13.1727 1.5C12.6227 1.5 12.1727 1.95 12.1727 2.5V4.5H10.1727C9.62267 4.5 9.17267 4.95 9.17267 5.5C9.17267 6.05 9.62267 6.5 10.1727 6.5H12.1727V8.5C12.1727 9.05 12.6227 9.5 13.1727 9.5ZM8.17267 18.5C7.07267 18.5 6.18267 19.4 6.18267 20.5C6.18267 21.6 7.07267 22.5 8.17267 22.5C9.27267 22.5 10.1727 21.6 10.1727 20.5C10.1727 19.4 9.27267 18.5 8.17267 18.5ZM18.1727 18.5C17.0727 18.5 16.1827 19.4 16.1827 20.5C16.1827 21.6 17.0727 22.5 18.1727 22.5C19.2727 22.5 20.1727 21.6 20.1727 20.5C20.1727 19.4 19.2727 18.5 18.1727 18.5ZM9.27267 13.5H16.7227C17.4727 13.5 18.1327 13.09 18.4727 12.47L21.7127 6.33C21.9627 5.85 21.7927 5.25 21.3127 4.99C20.8227 4.72 20.2127 4.91 19.9527 5.4L16.7227 11.5H9.70267L5.44267 2.5H3.17267C2.62267 2.5 2.17267 2.95 2.17267 3.5C2.17267 4.05 2.62267 4.5 3.17267 4.5H4.17267L7.77267 12.09L6.42267 14.53C5.69267 15.87 6.65267 17.5 8.17267 17.5H19.1727C19.7227 17.5 20.1727 17.05 20.1727 16.5C20.1727 15.95 19.7227 15.5 19.1727 15.5H8.17267L9.27267 13.5Z" fill="#FAFAFA"/>
</svg>
